<svg data-v-0dd9719b="" version="1.0" xmlns="http://www.w3.org/2000/svg" width="100%" height="100%"
     viewBox="50 80 240.000000 90.000000" preserveAspectRatio="xMidYMid meet"
     color-interpolation-filters="sRGB" style="margin: auto">
    <rect x="0" y="0" width="100%" height="100%" fill="url(#watermark)" fill-opacity="1"></rect>
    <g fill="#000000" transform="translate(67.44351196289062,93.74984359741211)">
        <g transform="translate(0,1.0344161987304688)">
            <g>
                <rect fill="#000000" fill-opacity="0" stroke-width="2" x="0" y="0" width="60"
                      height="60.4314807727172"></rect>
                <svg x="0" y="0" width="60" height="60.4314807727172" style="overflow: visible">
                    <svg fill="#000000" xmlns="http://www.w3.org/2000/svg" version="1.1" x="0px" y="0px"
                         viewBox="5.817999362945557 5.501628875732422 88.36306762695312 88.99850463867188"
                         enable-background="new 0 0 100 100" xml:space="preserve"><path fill-rule="evenodd" clip-rule="evenodd" d="M27.751,67.15l-0.001-4.54l-16.454,0.033c-3.027,0.017-5.475-2.431-5.478-5.47  V21.941c0.003-3.014,2.451-5.462,5.453-5.462c1.313,0,2.521,0.469,3.441,1.225l15.019,15.069c1.434,1.484,2.331,3.479,2.318,5.568  l-0.033,20.008l4.595,0.026L36.61,42.428c0.011-2.975,2.459-5.423,5.51-5.43l16.99,0.028v-4.742l-19.718,0.03  c-2.173,0-4.168-0.897-5.582-2.264l-15.39-15.078c-1.075-0.938-1.807-2.414-1.807-4.055c0-3.002,2.448-5.45,5.526-5.415h35.67  c3.099-0.035,5.548,2.413,5.544,5.212l0.024,17.276l4.386,0.056l-0.01-11.806c-0.002-3.042,2.519-5.49,5.442-5.49  c1.37,0,2.638,0.538,3.672,1.435l10.798,10.549c0.974,0.952,1.913,2.361,1.913,4.096c0,3.002-2.448,5.457-5.33,5.467L72.085,32.34  v4.658l16.678-0.037c2.984-0.007,5.433,2.419,5.418,5.451L94.17,78.11c-0.001,3.088-2.445,5.537-5.447,5.537  c-1.595,0-2.99-0.732-3.995-1.735l-14.585-14.56c-1.447-1.444-2.376-3.411-2.377-5.455l-0.004-20.661l-4.414,0.084l0.016,15.931  c0.015,2.96-2.433,5.4-5.411,5.392l-17.076-0.047l0.004,4.596l19.44-0.016c2.225-0.002,4.206,0.933,5.57,2.301l15.985,16.035  c0.868,0.87,1.242,2.163,1.242,3.476c0,3.002-2.448,5.45-5.546,5.471l-35.508,0.041c-3.102,0.02-5.55-2.428-5.507-5.539  l0.068-17.508l-4.598,0.029l0.023,11.997c0.013,3.031-2.435,5.479-5.437,5.479c-1.407,0-2.692-0.538-3.642-1.401l-11.506-11.45  c-0.76-0.919-1.215-2.126-1.187-3.44c0.063-3.002,2.448-5.45,5.331-5.482l12.135-0.032 M27.722,38.6  c-0.029-1.116-0.492-2.146-1.173-2.829L12.096,21.133c-0.217-0.23-0.506-0.36-0.824-0.36c-0.637,0-1.156,0.519-1.163,1.258v35.089  c0.008,0.726,0.527,1.245,1.213,1.233l16.429-0.032L27.722,38.6L27.722,38.6z M57.901,58.354l-16.997-0.009L40.9,42.47  c0.016-0.652,0.535-1.171,1.199-1.183l16.983,0.033l-0.007,15.87C59.086,57.847,58.566,58.354,57.901,58.354L57.901,58.354z   M78.443,88.126L63.137,72.745c-0.709-0.712-1.703-1.255-2.816-1.257l-19.44-0.034l-0.035,17.565  c-0.039,0.688,0.481,1.207,1.101,1.192l35.763-0.041c0.594-0.025,1.113-0.544,1.113-1.181C78.823,88.67,78.695,88.379,78.443,88.126  L78.443,88.126z M36.584,62.61l-0.005,4.515l-4.553,0.053l0.017-4.515L36.584,62.61L36.584,62.61z M27.76,83.419l0.01-11.91  l-12.062-0.013c-0.617,0.014-1.136,0.533-1.136,1.17c0,0.318,0.13,0.607,0.33,0.829L25.599,84.12  c0.263,0.34,0.615,0.543,1.013,0.543C27.249,84.662,27.768,84.143,27.76,83.419L27.76,83.419z M59.063,10.761l0.019,17.284  l-19.526-0.021c-1.164-0.004-2.194-0.467-2.942-1.164L21.308,11.77c-0.199-0.104-0.402-0.456-0.402-0.854  c0-0.637,0.519-1.156,1.158-1.125h35.88C58.542,9.76,59.062,10.279,59.063,10.761L59.063,10.761z M67.763,36.998l0.028-4.63  l-4.414-0.056v4.658L67.763,36.998L67.763,36.998z M84.931,25.999L74.106,15.276c-0.162-0.252-0.514-0.455-0.912-0.455  c-0.637,0-1.156,0.519-1.152,1.203l0.043,12.021l12.037-0.038c0.642-0.022,1.161-0.541,1.161-1.178  C85.284,26.511,85.154,26.222,84.931,25.999L84.931,25.999z M89.901,42.381c0-0.637-0.519-1.156-1.247-1.131l-16.597,0.014  l-0.004,20.39c0,0.834,0.51,1.821,1.194,2.514l14.571,14.741c0.201,0.203,0.507,0.443,0.904,0.443c0.637,0,1.156-0.519,1.157-1.168  l0.001-35.906"></path></svg>
                </svg>
            </g>
        </g>
        <g transform="translate(67,0)">
            <g>
                <g transform="scale(1)">
                    <g>
                        <path d="M15.18-13.2L15.18-13.2Q15.23-13.26 15.35-13.37L15.35-13.37Q15.68-13.75 16.11-14.13 16.55-14.52 17.21-14.77 17.88-15.02 18.86-15.02L18.86-15.02Q19.52-14.96 19.8-14.66 20.07-14.36 20.1-13.86 20.13-13.37 20.07-12.76L20.07-12.76Q20.02-12.21 19.86-11.17L19.86-11.17Q19.52-8.53 19.03-5.28L19.03-5.28Q20.18-6.21 21.89-7.59 23.59-8.96 24.53-9.73L24.53-9.73Q24.75-9.96 24.91-10.04 25.08-10.12 25.22-10.15 25.36-10.18 25.46-10.15 25.57-10.12 25.63-10.06 25.68-10.01 25.71-9.96 25.74-9.9 25.74-9.9L25.74-9.9Q25.74-9.9 25.77-9.85 25.8-9.79 25.85-9.68 25.91-9.57 25.91-9.4 25.91-9.24 25.82-9.07 25.74-8.91 25.57-8.69L25.57-8.69Q24.86-8.03 23.9-7.26 22.93-6.49 21.89-5.67L21.89-5.67Q19.96-4.18 18.7-3.02L18.7-3.02Q18.54-1.49 18.21 0.6 17.88 2.69 17.3 5 16.72 7.32 15.84 9.46 14.96 11.61 13.7 13.28 12.43 14.96 10.72 15.79 9.02 16.61 6.76 16.23L6.76 16.23Q5.45 16 4.9 15.26 4.34 14.52 4.24 13.26L4.24 13.26Q4.13 12.15 4.43 10.7 4.73 9.24 5.69 7.34 6.66 5.45 8.5 3.14 10.34 0.82 13.31-1.93L13.31-1.93 14.57-10.39Q12.1-6.88 10.04-4.81 7.97-2.75 6.33-1.9 4.67-1.04 3.3-1.21L3.3-1.21Q1.38-1.43 0.44-3.52-0.49-5.61-0.55-8.94-0.6-12.27 0.19-16.25 0.99-20.24 2.53-24.28 4.07-28.32 6.33-31.84 8.58-35.37 11.49-37.79L11.49-37.79Q13.59-39.33 15.65-39.79 17.71-40.26 19.41-39.88 21.12-39.49 22.22-38.31 23.32-37.13 23.46-35.31 23.59-33.49 22.47-31.16 21.34-28.82 18.7-26.13L18.7-26.13Q18.43-25.74 18.07-25.55 17.71-25.36 17.38-25.52L17.38-25.52Q17.11-25.74 17.13-26.13 17.16-26.51 17.77-27.11L17.77-27.11Q19.25-28.43 20.3-30.28 21.34-32.12 21.7-33.88 22.05-35.64 21.5-36.8L21.5-36.8Q21.12-37.51 20.46-37.56 19.8-37.62 19.06-37.34 18.32-37.07 17.74-36.69 17.16-36.3 16.89-36.08L16.89-36.08Q14.46-34.32 12.54-31.3 10.62-28.27 9.21-24.64 7.81-21.01 6.93-17.41 6.05-13.8 5.75-10.78 5.45-7.75 5.72-6 6-4.24 6.82-4.34L6.82-4.34Q7.48-4.34 8.47-5.22 9.46-6.11 10.72-7.65 11.99-9.19 13.53-11.11L13.53-11.11Q14.36-12.15 15.18-13.2ZM12.93 0.33L12.93 0.33Q10.45 2.81 8.91 4.95 7.37 7.09 6.63 8.88 5.88 10.67 5.75 11.91 5.61 13.14 5.88 13.8 6.16 14.46 6.71 14.36L6.71 14.36Q7.87 14.08 8.74 12.95 9.63 11.82 10.31 10.04 11 8.25 11.55 6.11 12.1 3.96 12.6 1.76L12.6 1.76Q12.76 1.04 12.93 0.33ZM36.8-12.27L36.8-12.27Q36.08-10.67 35.42-9.46 34.76-8.25 34.54-7.87L34.54-7.87Q32.73-4.79 31.27-3 29.81-1.21 28.46-0.55 27.11 0.11 25.68-0.11L25.68-0.11Q25.13-0.22 24.8-0.6 24.47-0.99 24.31-1.43 24.14-1.87 24.03-2.2L24.03-2.2Q23.98-2.31 23.98-2.42L23.98-2.42Q23.87-3.14 24.03-4.59 24.2-6.05 24.5-7.84 24.8-9.63 25.13-11.38L25.13-11.38Q25.52-13.31 25.74-14.63L25.74-14.63Q25.85-15.46 26.32-16.23 26.78-17 27.58-17.43 28.38-17.88 29.53-17.71L29.53-17.71Q29.53-17.71 29.56-17.68 29.59-17.66 29.64-17.63 29.7-17.6 29.78-17.52 29.86-17.43 29.89-17.3 29.92-17.16 29.92-16.94 29.92-16.72 29.86-16.45L29.86-16.45Q29.75-15.68 29.31-13.7L29.31-13.7Q28.93-12.04 28.52-9.98 28.1-7.92 27.77-6.02 27.45-4.13 27.39-2.89 27.33-1.65 27.66-1.54L27.66-1.54Q28.32-1.43 29.73-2.92 31.13-4.4 32.73-6.9 34.32-9.4 35.64-12.43L35.64-12.43Q35.75-12.71 35.86-12.79 35.97-12.87 36.08-12.9 36.19-12.93 36.24-12.93L36.24-12.93 36.35-12.93Q36.46-12.87 36.6-12.81 36.74-12.76 36.82-12.65 36.91-12.54 36.8-12.27ZM30.36-20.57L30.36-20.57Q29.2-20.3 28.57-20.57 27.94-20.84 27.72-21.48 27.5-22.11 27.72-22.88L27.72-22.88Q27.94-23.54 28.54-23.82 29.15-24.09 29.75-24.12 30.36-24.14 30.69-24.09L30.69-24.09Q31.02-23.98 31.02-23.24 31.02-22.5 30.83-21.67 30.63-20.84 30.36-20.57ZM51.09-12.04L51.09-12.04Q49.88-9.68 48.48-8.14 47.08-6.6 45.65-5.72 44.22-4.84 42.84-4.43 41.47-4.01 40.26-3.93 39.05-3.85 38.17-3.9L38.17-3.9Q38.28-3.46 38.66-2.31L38.66-2.31Q39.27-0.55 40.09 2.17 40.92 4.9 41.5 7.75 42.07 10.62 41.91 12.76L41.91 12.76Q41.85 13.92 41.52 15.4 41.19 16.89 40.53 18.26 39.88 19.64 38.72 20.52 37.56 21.39 35.86 21.29L35.86 21.29Q33.88 21.18 32.92 19.86 31.95 18.54 31.82 15.68 31.68 12.81 32.26 8 32.83 3.19 33.99-3.85L33.99-3.85Q34.76-8.69 35.72-12.84 36.68-17 37.92-20.05 39.16-23.1 40.81-24.61 42.46-26.13 44.55-25.68L44.55-25.68Q44.71-25.68 45.13-25.49 45.54-25.3 45.92-24.89 46.31-24.48 46.31-23.71L46.31-23.71Q46.25-22.88 45.79-20.87 45.32-18.86 44.36-16.23 43.39-13.59 41.88-10.95 40.37-8.3 38.22-6.16L38.22-6.16Q38.22-6.05 38.2-5.97 38.17-5.88 38.17-5.83 38.17-5.78 38.17-5.75 38.17-5.72 38.17-5.69 38.17-5.67 38.17-5.67 38.17-5.67 38.17-5.67L38.17-5.67Q38.17-5.67 38.14-5.64 38.11-5.61 38.11-5.61 38.11-5.61 38.11-5.58 38.11-5.55 38.11-5.5 38.11-5.45 38.09-5.36 38.06-5.28 38.06-5.17L38.06-5.17Q39.43-5 40.97-5.17 42.52-5.33 44.11-6.08 45.7-6.82 47.22-8.36 48.73-9.9 50.05-12.48L50.05-12.48Q50.32-12.93 50.65-13.01 50.98-13.09 51.18-12.87 51.37-12.65 51.09-12.04ZM38.55-8.09L38.55-8.09Q40.2-9.79 41.5-12.15 42.79-14.52 43.64-16.97 44.49-19.41 44.91-21.34 45.32-23.27 45.27-24.09L45.27-24.09Q44.49-24.59 43.64-23.4 42.79-22.22 41.94-20.05 41.08-17.88 40.37-15.43 39.65-12.98 39.19-10.97 38.72-8.96 38.55-8.09ZM37.67 19.75L37.67 19.75Q38.61 19.2 39.19 18.18 39.77 17.16 40.07 15.89 40.37 14.63 40.48 13.42 40.59 12.21 40.53 11.22L40.53 11.22Q40.37 8.53 39.9 6.19 39.43 3.85 38.77 1.9 38.11-0.06 37.45-1.71L37.45-1.71Q36.35 6 36.08 10.84 35.8 15.68 36.24 17.88 36.68 20.07 37.67 19.75ZM60.94-12.43L60.94-12.43Q59.78-8.53 58.11-5.28 56.43-2.04 54.67-0.08 52.91 1.87 51.59 1.87L51.59 1.87Q51.2 1.87 50.63 1.71 50.05 1.54 49.61 1.32L49.61 1.32Q48.45 0.66 48.15-1.16 47.85-2.97 48.1-5.39 48.34-7.81 48.87-10.31 49.39-12.81 49.88-14.9L49.88-14.9Q50.05-15.56 50.16-16.17L50.16-16.17Q48.67-16.11 47.58-15.98 46.48-15.84 46.09-15.46L46.09-15.46Q45.81-15.13 45.48-15.1 45.16-15.07 45.02-15.29 44.88-15.51 45.27-16L45.27-16Q45.27-16.06 45.48-16.23 45.7-16.39 46.23-16.58 46.75-16.77 47.74-16.91 48.73-17.05 50.38-17.05L50.38-17.05Q50.44-17.27 50.49-17.6L50.49-17.6Q50.71-18.48 50.98-19.52 51.26-20.57 51.54-20.84L51.54-20.84Q51.92-21.01 52.55-21.07 53.19-21.12 53.76-21.01 54.34-20.9 54.56-20.63L54.56-20.63Q54.67-20.46 54.51-19.66 54.34-18.86 54.12-17.93L54.12-17.93Q54.01-17.38 53.9-16.94L53.9-16.94Q54.23-16.94 54.73-17 55.22-17.05 55.72-17.27L55.72-17.27 55.77-17.27Q55.88-17.38 56.02-17.41 56.16-17.43 56.32-17.27L56.32-17.27Q56.43-17.16 56.46-17 56.48-16.83 56.27-16.66L56.27-16.66Q55.61-16.28 55.05-16.17 54.51-16.06 54.06-16L54.06-16 53.73-16Q53.57-15.13 53.24-13.92L53.24-13.92Q52.8-11.99 52.33-9.68 51.87-7.37 51.54-5.22 51.2-3.08 51.31-1.59 51.42-0.11 52.14 0.11L52.14 0.11Q52.91 0.11 53.82-0.8 54.73-1.71 56.32-4.24L56.32-4.24Q57.48-6.11 58.27-8.06 59.07-10.01 59.48-11.36 59.9-12.71 59.9-12.71L59.9-12.71Q59.95-12.81 60.01-12.93 60.06-13.04 60.2-13.09 60.34-13.14 60.5-13.09L60.5-13.09Q60.66-13.04 60.83-12.93 61-12.81 60.94-12.43ZM85.31-39.44L85.31-39.44 79.2-0.22Q77.61 0.22 76.26-0.03 74.91-0.28 74.14-1.13 73.37-1.98 73.48-3.35L73.48-3.35Q73.98-8.69 75.27-16.42 76.56-24.14 77.88-30.91 79.2-37.67 79.81-40.15L79.81-40.15Q79.81-40.15 79.83-40.26 79.86-40.37 79.92-40.54 79.97-40.7 80.14-40.84 80.3-40.98 80.55-41.09 80.8-41.2 81.21-41.2 81.62-41.2 82.2-41.03 82.78-40.87 83.55-40.48 84.31-40.09 85.31-39.44ZM94-7.21L94-7.21Q94.27-9.57 94.6-11.66L94.6-11.66Q94.82-13.14 95.04-14.96L95.04-14.96Q94.27-16.23 93.31-16.06 92.34-15.89 91.38-14.41 90.42-12.93 89.7-10.23L89.7-10.23Q89.16-7.92 89.1-6.35 89.05-4.79 89.43-3.9L89.43-3.9Q90.04-2.81 90.67-2.83 91.3-2.86 91.93-3.58 92.56-4.29 93.09-5.28 93.61-6.27 94-7.21ZM104.89-38.72L104.89-38.72Q104.45-39.05 103.98-38.12 103.51-37.18 103.04-35.42 102.58-33.66 102.11-31.43 101.64-29.21 101.2-26.95L101.2-26.95Q100.93-25.57 100.71-24.36L100.71-24.36Q101.42-25.36 102.3-26.79 103.18-28.21 103.95-29.92L103.95-29.92Q104.01-30.14 104.17-30.47L104.17-30.47Q104.45-31.24 104.86-32.4 105.27-33.55 105.52-34.79 105.77-36.02 105.66-37.07 105.55-38.12 104.89-38.72ZM105.22-12.21L105.22-12.21Q105.27-12.6 105.44-12.73 105.6-12.87 105.82-12.76L105.82-12.76Q106.04-12.65 106.12-12.38 106.21-12.1 106.09-11.82L106.09-11.82Q105.11-8.03 103.98-5.58 102.85-3.14 101.72-1.73 100.59-0.33 99.61 0.28 98.62 0.88 97.84 0.99 97.08 1.1 96.64 0.94L96.64 0.94Q95.98 0.71 95.37 0.17 94.77-0.39 94.38-1.4 94-2.42 93.89-4.13L93.89-4.13Q93.12-2.81 92.1-1.76 91.08-0.71 89.98-0.3 88.88 0.11 87.81-0.44 86.73-0.99 85.86-2.86L85.86-2.86Q85.2-4.29 85.36-6.6 85.53-8.91 86.24-11.28L86.24-11.28Q87.23-13.92 88.55-15.4 89.87-16.89 91.25-17.38 92.62-17.88 93.72-17.52 94.82-17.16 95.31-16.06L95.31-16.06Q95.81-18.86 96.66-23.18 97.52-27.5 98.06-29.75L98.06-29.75Q98.84-32.84 99.72-35.2 100.59-37.56 101.7-38.8 102.8-40.04 104.23-39.82L104.23-39.82 104.28-39.82Q104.45-39.77 104.83-39.63 105.22-39.49 105.66-39.08 106.09-38.66 106.43-37.9L106.43-37.9Q106.65-37.18 106.51-35.75 106.37-34.32 105.96-32.67 105.55-31.02 104.94-29.64L104.94-29.64Q104.23-27.89 103.46-26.57 102.69-25.25 101.94-24.25 101.2-23.27 100.54-22.55L100.54-22.55Q99.11-15.51 98.42-10.78 97.73-6.05 97.87-3.71 98.01-1.38 99.11-1.38L99.11-1.38Q99.39-1.32 99.96-1.57 100.54-1.81 101.34-2.86 102.14-3.9 103.13-6.13 104.12-8.36 105.22-12.21ZM113.19-13.09L113.19-13.09Q113.25-13.2 113.38-13.72 113.52-14.24 113.49-14.79 113.47-15.35 113.08-15.68L113.08-15.68Q112.75-15.89 112.42-15.84 112.09-15.79 111.84-15.62 111.6-15.46 111.43-15.29L111.43-15.29Q111.05-14.9 110.5-14.03 109.95-13.14 109.48-12.24 109.01-11.33 108.85-10.78L108.85-10.78Q110.11-10.34 110.96-10.64 111.82-10.95 112.34-11.63 112.86-12.32 113.19-13.09ZM118.97-12.48L118.97-12.48Q119.08-12.76 119.24-12.9 119.41-13.04 119.63-12.98L119.63-12.98Q120.07-12.93 119.9-12.27L119.9-12.27Q118.86-9.24 117.56-6.76 116.27-4.29 114.7-2.58 113.14-0.88 111.24-0.19 109.34 0.49 107.14 0L107.14 0Q105.38-0.44 104.53-2.06 103.68-3.69 103.73-6.19 103.79-8.69 104.78-11.71L104.78-11.71Q105.44-13.64 106.54-15.07 107.64-16.5 108.98-17.13 110.33-17.77 111.76-17.38L111.76-17.38Q112.75-17.11 113.49-16.5 114.24-15.89 114.43-14.9 114.62-13.92 114.02-12.54L114.02-12.54Q113.63-11.66 112.92-10.86 112.2-10.06 111.07-9.68 109.95-9.29 108.41-9.73L108.41-9.73Q107.8-7.59 107.61-6.16 107.42-4.73 107.47-3.82 107.53-2.92 107.8-2.39 108.08-1.87 108.35-1.59L108.35-1.59Q109.45-0.77 110.74-1.16 112.04-1.54 113.33-2.78 114.62-4.01 115.78-5.72 116.93-7.42 117.78-9.21 118.64-11 118.97-12.48ZM137.56-12.48L137.56-12.48Q137.56-12.27 136.92-10.26 136.29-8.25 135.3-5.75 134.31-3.25 133.16-1.18 132 0.88 130.96 1.49L130.96 1.49Q130.9 1.54 130.85 1.54L130.85 1.54Q130.46 1.71 130.05 1.84 129.64 1.98 129.2 1.98L129.2 1.98Q127.77 1.87 127.05 0.94 126.34 0 126.17-1.65 126.01-3.3 126.28-5.67L126.28-5.67Q125.62-3.9 124.49-2.5 123.37-1.1 122.05-0.39 120.73 0.33 119.6 0 118.47-0.33 117.81-1.98 117.15-3.63 117.32-6.99L117.32-6.99Q117.48-8.63 118.03-10.51 118.58-12.38 119.52-14.05 120.45-15.73 121.77-16.72 123.09-17.71 124.8-17.66L124.8-17.66Q125.68-17.6 126.28-17.32 126.89-17.05 127.24-16.66 127.6-16.28 127.77-15.92 127.93-15.56 127.99-15.32 128.04-15.07 128.04-15.07L128.04-15.07Q127.71-14.74 127.44-14.93 127.16-15.13 126.83-15.56L126.83-15.56Q126.56-15.89 126.25-16.2 125.95-16.5 125.51-16.55L125.51-16.55Q125.02-16.61 124.33-15.92 123.64-15.23 122.93-13.92 122.21-12.6 121.72-10.7 121.22-8.8 121.17-6.43L121.17-6.43Q121.17-5 121.5-4.32 121.83-3.63 122.21-3.41 122.6-3.19 122.76-3.19L122.76-3.19Q123.48-3.14 124.22-4.24 124.96-5.33 125.62-7.01 126.28-8.69 126.75-10.45 127.22-12.21 127.27-13.53L127.27-13.53Q127.44-13.64 128.04-13.78 128.65-13.92 129.36-13.97 130.08-14.03 130.52-13.8L130.52-13.8Q130.68-13.7 130.82-13.42 130.96-13.14 130.96-12.87L130.96-12.87Q130.96-12.87 130.65-11.55 130.35-10.23 130.02-8.33 129.69-6.43 129.5-4.51 129.31-2.58 129.44-1.29 129.58 0 130.3 0.06L130.3 0.06Q131.07 0 131.95-1.32 132.83-2.64 133.65-4.59 134.48-6.54 135.14-8.47 135.8-10.39 136.18-11.61L136.18-11.61Q136.51-12.6 136.57-12.65L136.57-12.65Q136.68-12.98 136.92-13.06 137.17-13.14 137.36-13.01 137.56-12.87 137.56-12.48Z"
                                transform="translate(0.5529761910438538, 41.20000076293945)"></path>
                    </g>
                </g>
            </g>
        </g>
    </g>
</svg>